<!--?xml version="1.0" encoding="utf-8"?-->
<!-- Svg Vector Icons : http://www.onlinewebfonts.com/icon -->

<svg version="1.1" xmlns="http://www.w3.org/2000/svg" xmlns:xlink="http://www.w3.org/1999/xlink" x="0px" y="0px" viewBox="0 0 256 256" enable-background="new 0 0 256 256" xml:space="preserve">
<metadata> Svg Vector Icons : http://www.onlinewebfonts.com/icon </metadata>
<g><g><path fill="#ffc462" data-title="Layer 0" xs="0" d="M219.8,23.1H36.2C21.7,23.1,10,34.9,10,49.3v118c0,14.5,11.7,26.2,26.2,26.2h78.7v26.2H62.4v13.1h131.1v-13.1h-52.5v-26.2h78.7c14.5,0,26.2-11.7,26.2-26.2v-118C246,34.9,234.3,23.1,219.8,23.1z M63,139.5H49.7V73.9H63V139.5z M136.8,130.7c-5.5,5.8-13.1,8.7-22.7,8.7c-9.7,0-17.2-3-22.7-8.9c-5.5-5.9-8.2-13.9-8.2-23.9c0-10.1,2.7-18.1,8.2-24s13.1-8.8,22.7-8.8c9.6,0,17.2,2.9,22.7,8.8c5.5,5.9,8.3,13.8,8.3,24C145.1,116.9,142.3,124.9,136.8,130.7z M213.2,86.9h-20.7v52.6h-14.1V86.9h-25.7l0.1-13h60.4V86.9L213.2,86.9z M114.7,88.9c5.1,0-15-3.7-15,18.4c0-1.9-1.8,18.4,15,18.4c-4.7,0,14.9,3.3,14.9-18.4C129.6,109.3,131.3,88.9,114.7,88.9z"/></g></g>
</svg>